<?xml version="1.0" encoding="UTF-8" standalone="no"?>
<svg
   xmlns:dc="http://purl.org/dc/elements/1.1/"
   xmlns:cc="http://creativecommons.org/ns#"
   xmlns:rdf="http://www.w3.org/1999/02/22-rdf-syntax-ns#"
   xmlns:svg="http://www.w3.org/2000/svg"
   xmlns="http://www.w3.org/2000/svg"
   xmlns:xlink="http://www.w3.org/1999/xlink"
   xmlns:sodipodi="http://sodipodi.sourceforge.net/DTD/sodipodi-0.dtd"
   xmlns:inkscape="http://www.inkscape.org/namespaces/inkscape"
   sodipodi:docname="logo.svg"
   inkscape:version="1.0 (4035a4fb49, 2020-05-01)"
   id="svg8"
   version="1.1"
   viewBox="0 0 16.692838 23.629299"
   height="23.629299mm"
   width="16.692837mm">
  <defs
     id="defs2">
    <filter
       inkscape:collect="always"
       style="color-interpolation-filters:sRGB"
       id="filter18535"
       x="-0.18174873"
       y="-0.12606171"
       width="1.3634975"
       height="1.2521234">
      <feGaussianBlur
         inkscape:collect="always"
         stdDeviation="10.517066"
         id="feGaussianBlur18537" />
    </filter>
    <filter
       inkscape:collect="always"
       style="color-interpolation-filters:sRGB"
       id="filter16101"
       x="-0.024966121"
       y="-0.01731661"
       width="1.0499322"
       height="1.0346332">
      <feGaussianBlur
         inkscape:collect="always"
         stdDeviation="1.4446887"
         id="feGaussianBlur16103" />
    </filter>
    <linearGradient
       inkscape:collect="always"
       id="linearGradient12517">
      <stop
         style="stop-color:#000000;stop-opacity:1;"
         offset="0"
         id="stop12513" />
      <stop
         style="stop-color:#000000;stop-opacity:0;"
         offset="1"
         id="stop12515" />
    </linearGradient>
    <linearGradient
       inkscape:collect="always"
       id="linearGradient21280">
      <stop
         style="stop-color:#c7ce27;stop-opacity:1;"
         offset="0"
         id="stop21276" />
      <stop
         style="stop-color:#c7ce27;stop-opacity:0.08831909"
         offset="1"
         id="stop21278" />
    </linearGradient>
    <linearGradient
       inkscape:collect="always"
       xlink:href="#linearGradient21280"
       id="linearGradient888"
       gradientUnits="userSpaceOnUse"
       gradientTransform="matrix(0.11306648,0,0,0.11306648,294.06614,-13.090024)"
       x1="-706.13452"
       y1="-318.81277"
       x2="-602.21558"
       y2="-166.15501" />
    <linearGradient
       inkscape:collect="always"
       xlink:href="#linearGradient12517"
       id="linearGradient890"
       gradientUnits="userSpaceOnUse"
       gradientTransform="matrix(0.11306648,0,0,0.11306648,294.06565,-13.121654)"
       x1="-483.92087"
       y1="-43.640148"
       x2="-552.51709"
       y2="-160.98895" />
    <linearGradient
       y2="-160.98895"
       x2="-552.51709"
       y1="-43.640148"
       x1="-483.92087"
       gradientTransform="matrix(0.11306648,0,0,0.11306648,324.60119,-13.656193)"
       gradientUnits="userSpaceOnUse"
       id="linearGradient873"
       xlink:href="#linearGradient12517"
       inkscape:collect="always" />
  </defs>
  <sodipodi:namedview
     inkscape:window-maximized="1"
     inkscape:window-y="-8"
     inkscape:window-x="1272"
     inkscape:window-height="1017"
     inkscape:window-width="1920"
     showgrid="false"
     inkscape:document-rotation="0"
     inkscape:current-layer="layer1"
     inkscape:document-units="mm"
     inkscape:cy="54.831574"
     inkscape:cx="5.0062084"
     inkscape:zoom="3.9597981"
     inkscape:pageshadow="2"
     inkscape:pageopacity="0.0"
     borderopacity="1.0"
     bordercolor="#666666"
     pagecolor="#ffffff"
     id="base" />
  <metadata
     id="metadata5">
    <rdf:RDF>
      <cc:Work
         rdf:about="">
        <dc:format>image/svg+xml</dc:format>
        <dc:type
           rdf:resource="http://purl.org/dc/dcmitype/StillImage" />
        <dc:title />
      </cc:Work>
    </rdf:RDF>
  </metadata>
  <g
     id="layer1"
     inkscape:groupmode="layer"
     inkscape:label="Шар 1"
     transform="translate(-248.50518,40.868289)">
    <path
       inkscape:export-ydpi="96"
       inkscape:export-xdpi="96"
       inkscape:export-filename="E:\rzs\desktop.png"
       transform="matrix(0.11306647,0,0,0.11306647,180.63024,-192.39721)"
       d="m 408.46879,1344.374 c -44.07966,0 -79.8132,35.7334 -79.8132,79.8132 v 119.7183 l 19.1585,0.6955 v -120.4122 c 0,-33.4891 27.16615,-60.6558 60.65523,-60.6558 v -19.159 z m 5.3e-4,20.747 c -32.63059,0 -59.0667,26.4373 -59.0667,59.0678 v 60.6526 h 18.36635 v -60.6526 c 0,-22.4692 18.23119,-40.7014 40.70035,-40.7014 22.42441,0 40.61674,18.1636 40.68897,40.5711 0.0124,0.042 0.0124,0.085 0.0124,0.1287 h 18.36322 c 0,-32.6296 -26.43465,-59.0662 -59.0646,-59.0662 z m 0,19.9549 c -21.61016,0 -39.11095,17.5015 -39.11182,39.1113 h 18.51514 c 0,-11.3666 9.23023,-20.5967 20.59668,-20.5967 11.31736,0 20.50325,9.155 20.5822,20.4541 a 0.79422516,0.79422516 0 0 1 0.016,0.1426 0.79422516,0.79422516 0 0 1 -0.0124,0.1369 c -0.0756,11.302 -9.26467,20.4639 -20.58429,20.4639 h -10e-4 v 18.5152 h 10e-4 c 21.61053,0 39.11288,-17.5013 39.11288,-39.1119 0,-21.6105 -17.50235,-39.1133 -39.11288,-39.1133 z m 0,20.1011 c -10.50796,0 -19.00867,8.5007 -19.00867,19.0087 0,10.5076 8.50071,19.0117 19.00867,19.0117 10.50782,0 19.00864,-8.5041 19.00864,-19.0117 0,-10.508 -8.50082,-19.0087 -19.00864,-19.0087 z"
       style="display:inline;fill:#5cf471;fill-opacity:0.2;stroke:none;stroke-width:0.371808;stroke-linecap:round;stroke-linejoin:round;stroke-miterlimit:4;stroke-dasharray:none;stroke-opacity:1;filter:url(#filter18535)"
       id="path872" />
    <path
       inkscape:export-ydpi="96"
       inkscape:export-xdpi="96"
       inkscape:export-filename="E:\rzs\desktop.png"
       transform="matrix(0.11306647,0,0,0.11306647,180.63024,-192.39721)"
       d="m 415.34791,1350.1949 c -44.07966,0 -79.8132,35.7334 -79.8132,79.8132 v 119.7183 l 19.1585,0.6955 v -120.4122 c 0,-33.4891 27.16615,-60.6558 60.65523,-60.6558 v -19.159 z m 5.3e-4,20.747 c -32.63059,0 -59.0667,26.4373 -59.0667,59.0678 v 60.6526 h 18.36635 v -60.6526 c 0,-22.4692 18.23119,-40.7014 40.70035,-40.7014 22.42441,0 40.61674,18.1636 40.68897,40.5711 0.0124,0.042 0.0124,0.085 0.0124,0.1287 h 18.36322 c 0,-32.6296 -26.43465,-59.0662 -59.0646,-59.0662 z m 0,19.9549 c -21.61016,0 -39.11095,17.5015 -39.11182,39.1113 h 18.51514 c 0,-11.3666 9.23023,-20.5967 20.59668,-20.5967 11.31736,0 20.50325,9.155 20.5822,20.4541 a 0.79422516,0.79422516 0 0 1 0.016,0.1426 0.79422516,0.79422516 0 0 1 -0.0124,0.1369 c -0.0756,11.302 -9.26467,20.4639 -20.58429,20.4639 h -10e-4 v 18.5152 h 10e-4 c 21.61053,0 39.11288,-17.5013 39.11288,-39.1119 0,-21.6105 -17.50235,-39.1133 -39.11288,-39.1133 z m 0,20.1011 c -10.50796,0 -19.00867,8.5007 -19.00867,19.0087 0,10.5076 8.50071,19.0117 19.00867,19.0117 10.50782,0 19.00864,-8.5041 19.00864,-19.0117 0,-10.508 -8.50082,-19.0087 -19.00864,-19.0087 z"
       style="display:inline;fill:#151515;fill-opacity:1;stroke:none;stroke-width:0.371808;stroke-linecap:round;stroke-linejoin:round;stroke-miterlimit:4;stroke-dasharray:none;stroke-opacity:1;filter:url(#filter16101)"
       id="path874" />
    <path
       inkscape:export-ydpi="96"
       inkscape:export-xdpi="96"
       inkscape:export-filename="E:\rzs\desktop.png"
       sodipodi:nodetypes="sscccccs"
       d="m 226.99384,-40.33375 c -4.98393,0 -9.0242,4.040257 -9.0242,9.024209 v 13.536118 l 2.16621,0.07862 v -13.614544 c 0,-3.786489 3.0716,-6.858172 6.8581,-6.858172 v -2.16623 z"
       style="display:inline;fill:#7130fb;fill-opacity:1;stroke:none;stroke-width:0.0420393;stroke-linecap:round;stroke-linejoin:round;stroke-miterlimit:4;stroke-dasharray:none;stroke-opacity:1"
       id="path876" />
    <path
       inkscape:export-ydpi="96"
       inkscape:export-xdpi="96"
       inkscape:export-filename="E:\rzs\desktop.png"
       d="m 226.99395,-35.731703 c -2.44339,0 -4.42217,1.978814 -4.42227,4.422162 h 2.09343 v 0 c 0,-1.285186 1.04367,-2.328841 2.32884,-2.328841 1.2796,0 2.3182,1.035132 2.32713,2.312673 a 0.08980024,0.08980024 0 0 1 0.002,0.01616 0.08980024,0.08980024 0 0 1 -0.001,0.01544 c -0.009,1.277879 -1.04755,2.313773 -2.32742,2.313773 0,0 0,0 0,0 v 2.093446 c 3e-5,0 5e-5,0 0,0 2.44343,0 4.42236,-1.978816 4.42236,-4.422247 0,-2.443422 -1.97893,-4.422355 -4.42236,-4.422355 z"
       style="display:inline;fill:#52dfd6;fill-opacity:1;stroke:none;stroke-width:0.0420393;stroke-linecap:round;stroke-linejoin:round;stroke-miterlimit:4;stroke-dasharray:none;stroke-opacity:1"
       id="path878" />
    <path
       inkscape:export-ydpi="96"
       inkscape:export-xdpi="96"
       inkscape:export-filename="E:\rzs\desktop.png"
       d="m 226.99395,-33.458949 c -1.1881,0 -2.14925,0.961134 -2.14925,2.149215 0,1.188068 0.96115,2.149588 2.14925,2.149588 1.18808,0 2.14921,-0.96152 2.14921,-2.149588 0,-1.188081 -0.96113,-2.149215 -2.14921,-2.149215 z"
       style="display:inline;fill:#fdfa66;fill-opacity:1;stroke:none;stroke-width:0.0420393;stroke-linecap:round;stroke-linejoin:round;stroke-miterlimit:4;stroke-dasharray:none;stroke-opacity:1"
       id="path880" />
    <path
       inkscape:export-ydpi="96"
       inkscape:export-xdpi="96"
       inkscape:export-filename="E:\rzs\desktop.png"
       sodipodi:nodetypes="cccccscccsc"
       d="m 226.99395,-37.987972 c -3.68943,0 -6.67851,2.98922 -6.67851,6.678624 v 6.857726 h 2.07665 v -6.857726 c 0,-2.54051 2.06135,-4.601971 4.60186,-4.601971 2.53544,0 4.59236,2.053653 4.60055,4.587194 10e-4,0.0048 10e-4,0.0096 10e-4,0.01455 h 2.07625 c 0,-3.689307 -2.98885,-6.678401 -6.6782,-6.678401 z"
       style="display:inline;fill:#fa5f7f;fill-opacity:1;stroke:none;stroke-width:0.0420393;stroke-linecap:round;stroke-linejoin:round;stroke-miterlimit:4;stroke-dasharray:none;stroke-opacity:1"
       id="path882" />
    <path
       inkscape:export-ydpi="96"
       inkscape:export-xdpi="96"
       inkscape:export-filename="E:\rzs\desktop.png"
       d="m 226.99386,-40.33375 c -4.98393,0 -9.0242,4.040257 -9.0242,9.024209 v 13.536118 l 2.16619,0.07865 v -13.614594 c 0,-3.786489 3.07158,-6.858142 6.85807,-6.858142 v -2.16624 z m 5e-5,2.345797 c -3.68942,0 -6.67847,2.989181 -6.67847,6.678585 v 6.857785 h 2.07663 v -6.857785 c 0,-2.54051 2.06132,-4.601961 4.60184,-4.601961 2.53544,0 4.5924,2.053701 4.60055,4.587222 0.001,0.0047 0.001,0.0096 0.001,0.01458 h 2.07627 c 0,-3.689327 -2.98887,-6.678412 -6.67823,-6.678412 z m 0,2.256241 c -2.44339,0 -4.42214,1.978823 -4.42224,4.422171 h 2.09343 c 0,-1.285186 1.04364,-2.328794 2.32881,-2.328794 1.27961,0 2.31823,1.035115 2.32715,2.312666 a 0.08980024,0.08980024 0 0 1 0.002,0.01614 0.08980024,0.08980024 0 0 1 -0.001,0.01547 c -0.009,1.277871 -1.04752,2.313775 -2.3274,2.313775 v 0 2.093446 0 c 2.44344,0 4.42236,-1.978806 4.42236,-4.422238 0,-2.443434 -1.97892,-4.422403 -4.42236,-4.422403 z m 0,2.272754 c -1.1881,0 -2.14925,0.961143 -2.14925,2.149243 0,1.188049 0.96115,2.149588 2.14925,2.149588 1.18807,0 2.14924,-0.961539 2.14924,-2.149588 0,-1.1881 -0.96117,-2.149243 -2.14924,-2.149243 z"
       style="display:inline;fill:url(#linearGradient890);fill-opacity:1;stroke:none;stroke-width:0.0420388;stroke-linecap:round;stroke-linejoin:round;stroke-miterlimit:4;stroke-dasharray:none;stroke-opacity:1"
       id="path884" />
    <path
       inkscape:export-ydpi="96"
       inkscape:export-xdpi="96"
       inkscape:export-filename="E:\rzs\desktop.png"
       d="m 226.99433,-40.302141 c -4.98393,0 -9.02419,4.040258 -9.02419,9.024209 v 13.536116 l 2.16619,0.07864 v -13.614587 c 0,-3.786498 3.07157,-6.858144 6.85807,-6.858144 v -2.166238 z m 8e-5,2.345798 c -3.68943,0 -6.67847,2.989161 -6.67847,6.678584 v 6.857766 h 2.07663 v -6.857766 c 0,-2.540509 2.06132,-4.601961 4.60184,-4.601961 2.53544,0 4.59239,2.053691 4.60055,4.587232 0.001,0.0048 0.001,0.0096 0.001,0.01455 h 2.07625 c 0,-3.689327 -2.98888,-6.678411 -6.67821,-6.678411 z m 0,2.25622 c -2.44339,0 -4.42215,1.978843 -4.42225,4.422191 h 2.09345 c 0,-1.285186 1.04363,-2.328813 2.3288,-2.328813 1.27961,0 2.31823,1.035134 2.32715,2.312683 a 0.08980024,0.08980024 0 0 1 0.002,0.01614 0.08980024,0.08980024 0 0 1 -10e-4,0.01547 c -0.009,1.277881 -1.04751,2.313784 -2.32739,2.313784 v 0 2.093455 0 c 2.44343,0 4.42237,-1.978814 4.42237,-4.422265 0,-2.443415 -1.97894,-4.422384 -4.42237,-4.422384 z m 0,2.272774 c -1.1881,0 -2.14924,0.961133 -2.14924,2.149241 0,1.188052 0.96114,2.149591 2.14924,2.149591 1.18807,0 2.14923,-0.961539 2.14923,-2.149591 0,-1.188108 -0.96116,-2.149241 -2.14923,-2.149241 z"
       style="display:inline;opacity:0.5;fill:url(#linearGradient888);fill-opacity:1;stroke:none;stroke-width:0.0420388;stroke-linecap:round;stroke-linejoin:round;stroke-miterlimit:4;stroke-dasharray:none;stroke-opacity:1"
       id="path886" />
    <path
       id="path857"
       style="display:inline;fill:#151515;fill-opacity:1;stroke:none;stroke-width:0.371808;stroke-linecap:round;stroke-linejoin:round;stroke-miterlimit:4;stroke-dasharray:none;stroke-opacity:1;filter:url(#filter16101)"
       d="m 415.34791,1350.1949 c -44.07966,0 -79.8132,35.7334 -79.8132,79.8132 v 119.7183 l 19.1585,0.6955 v -120.4122 c 0,-33.4891 27.16615,-60.6558 60.65523,-60.6558 v -19.159 z m 5.3e-4,20.747 c -32.63059,0 -59.0667,26.4373 -59.0667,59.0678 v 60.6526 h 18.36635 v -60.6526 c 0,-22.4692 18.23119,-40.7014 40.70035,-40.7014 22.42441,0 40.61674,18.1636 40.68897,40.5711 0.0124,0.042 0.0124,0.085 0.0124,0.1287 h 18.36322 c 0,-32.6296 -26.43465,-59.0662 -59.0646,-59.0662 z m 0,19.9549 c -21.61016,0 -39.11095,17.5015 -39.11182,39.1113 h 18.51514 c 0,-11.3666 9.23023,-20.5967 20.59668,-20.5967 11.31736,0 20.50325,9.155 20.5822,20.4541 a 0.79422516,0.79422516 0 0 1 0.016,0.1426 0.79422516,0.79422516 0 0 1 -0.0124,0.1369 c -0.0756,11.302 -9.26467,20.4639 -20.58429,20.4639 h -10e-4 v 18.5152 h 10e-4 c 21.61053,0 39.11288,-17.5013 39.11288,-39.1119 0,-21.6105 -17.50235,-39.1133 -39.11288,-39.1133 z m 0,20.1011 c -10.50796,0 -19.00867,8.5007 -19.00867,19.0087 0,10.5076 8.50071,19.0117 19.00867,19.0117 10.50782,0 19.00864,-8.5041 19.00864,-19.0117 0,-10.508 -8.50082,-19.0087 -19.00864,-19.0087 z"
       transform="matrix(0.11306647,0,0,0.11306647,211.16578,-192.93175)"
       inkscape:export-filename="E:\rzs\desktop.png"
       inkscape:export-xdpi="96"
       inkscape:export-ydpi="96" />
    <path
       id="path859"
       style="display:inline;fill:#7130fb;fill-opacity:1;stroke:none;stroke-width:0.0420393;stroke-linecap:round;stroke-linejoin:round;stroke-miterlimit:4;stroke-dasharray:none;stroke-opacity:1"
       d="m 257.52938,-40.868289 c -4.98393,0 -9.0242,4.040257 -9.0242,9.024209 v 13.536118 l 2.16621,0.07862 v -13.614544 c 0,-3.786489 3.0716,-6.858172 6.8581,-6.858172 v -2.16623 z"
       sodipodi:nodetypes="sscccccs"
       inkscape:export-filename="E:\rzs\desktop.png"
       inkscape:export-xdpi="96"
       inkscape:export-ydpi="96" />
    <path
       id="path861"
       style="display:inline;fill:#52dfd6;fill-opacity:1;stroke:none;stroke-width:0.0420393;stroke-linecap:round;stroke-linejoin:round;stroke-miterlimit:4;stroke-dasharray:none;stroke-opacity:1"
       d="m 257.52949,-36.266242 c -2.44339,0 -4.42217,1.978814 -4.42227,4.422162 h 2.09343 v 0 c 0,-1.285186 1.04367,-2.328841 2.32884,-2.328841 1.2796,0 2.3182,1.035132 2.32713,2.312673 a 0.08980024,0.08980024 0 0 1 0.002,0.01616 0.08980024,0.08980024 0 0 1 -10e-4,0.01544 c -0.009,1.277879 -1.04755,2.313773 -2.32742,2.313773 0,0 0,0 0,0 v 2.093446 c 3e-5,0 5e-5,0 0,0 2.44343,0 4.42236,-1.978816 4.42236,-4.422247 0,-2.443422 -1.97893,-4.422355 -4.42236,-4.422355 z"
       inkscape:export-filename="E:\rzs\desktop.png"
       inkscape:export-xdpi="96"
       inkscape:export-ydpi="96" />
    <path
       id="path863"
       style="display:inline;fill:#fdfa66;fill-opacity:1;stroke:none;stroke-width:0.0420393;stroke-linecap:round;stroke-linejoin:round;stroke-miterlimit:4;stroke-dasharray:none;stroke-opacity:1"
       d="m 257.52949,-33.993488 c -1.1881,0 -2.14925,0.961134 -2.14925,2.149215 0,1.188068 0.96115,2.149588 2.14925,2.149588 1.18808,0 2.14921,-0.96152 2.14921,-2.149588 0,-1.188081 -0.96113,-2.149215 -2.14921,-2.149215 z"
       inkscape:export-filename="E:\rzs\desktop.png"
       inkscape:export-xdpi="96"
       inkscape:export-ydpi="96" />
    <path
       id="path865"
       style="display:inline;fill:#fa5f7f;fill-opacity:1;stroke:none;stroke-width:0.0420393;stroke-linecap:round;stroke-linejoin:round;stroke-miterlimit:4;stroke-dasharray:none;stroke-opacity:1"
       d="m 257.52949,-38.522511 c -3.68943,0 -6.67851,2.98922 -6.67851,6.678624 v 6.857726 h 2.07665 v -6.857726 c 0,-2.54051 2.06135,-4.601971 4.60186,-4.601971 2.53544,0 4.59236,2.053653 4.60055,4.587194 10e-4,0.0048 10e-4,0.0096 10e-4,0.01455 h 2.07625 c 0,-3.689307 -2.98885,-6.678401 -6.6782,-6.678401 z"
       sodipodi:nodetypes="cccccscccsc"
       inkscape:export-filename="E:\rzs\desktop.png"
       inkscape:export-xdpi="96"
       inkscape:export-ydpi="96" />
    <path
       id="path867"
       style="display:inline;fill:url(#linearGradient873);fill-opacity:1;stroke:none;stroke-width:0.0420388;stroke-linecap:round;stroke-linejoin:round;stroke-miterlimit:4;stroke-dasharray:none;stroke-opacity:1"
       d="m 257.5294,-40.868289 c -4.98393,0 -9.0242,4.040257 -9.0242,9.024209 v 13.536118 l 2.16619,0.07865 v -13.614594 c 0,-3.786489 3.07158,-6.858142 6.85807,-6.858142 v -2.16624 z m 5e-5,2.345797 c -3.68942,0 -6.67847,2.989181 -6.67847,6.678585 v 6.857785 h 2.07663 v -6.857785 c 0,-2.54051 2.06132,-4.601961 4.60184,-4.601961 2.53544,0 4.5924,2.053701 4.60055,4.587222 10e-4,0.0047 10e-4,0.0096 10e-4,0.01458 h 2.07627 c 0,-3.689327 -2.98887,-6.678412 -6.67823,-6.678412 z m 0,2.256241 c -2.44339,0 -4.42214,1.978823 -4.42224,4.422171 h 2.09343 c 0,-1.285186 1.04364,-2.328794 2.32881,-2.328794 1.27961,0 2.31823,1.035115 2.32715,2.312666 a 0.08980024,0.08980024 0 0 1 0.002,0.01614 0.08980024,0.08980024 0 0 1 -0.001,0.01547 c -0.009,1.277871 -1.04752,2.313775 -2.3274,2.313775 v 0 2.093446 0 c 2.44344,0 4.42236,-1.978806 4.42236,-4.422238 0,-2.443434 -1.97892,-4.422403 -4.42236,-4.422403 z m 0,2.272754 c -1.1881,0 -2.14925,0.961143 -2.14925,2.149243 0,1.188049 0.96115,2.149588 2.14925,2.149588 1.18807,0 2.14924,-0.961539 2.14924,-2.149588 0,-1.1881 -0.96117,-2.149243 -2.14924,-2.149243 z"
       inkscape:export-filename="E:\rzs\desktop.png"
       inkscape:export-xdpi="96"
       inkscape:export-ydpi="96" />
  </g>
</svg>
